<?xml version="1.0" encoding="UTF-8"?>
<svg id="_레이어_2" data-name="레이어 2" xmlns="http://www.w3.org/2000/svg" viewBox="0 0 177.92 41.28">
  <defs>
    <style>
      .cls-1 {
        fill: #231815;
      }

      .cls-1, .cls-2 {
        stroke-width: 0px;
      }

      .cls-2 {
        fill: #f4c43a;
      }
    </style>
  </defs>
  <g id="_레이어_1-2" data-name="레이어 1">
    <g>
      <g>
        <path class="cls-1" d="m42.17,36.96h.09s.7-6.33.7-6.33h3.33l-1.43,10.4h-4.19l-.96-6.05h-.07l-.96,6.05h-4.06l-1.36-10.4h3.67l.49,6.33h.08l.76-6.33h3.12l.78,6.33Z"/>
        <path class="cls-1" d="m51.42,41.28c-.35,0-.65,0-.91-.02-.26-.01-.56-.04-.88-.08-.33-.04-.61-.1-.85-.17s-.48-.18-.72-.31c-.24-.13-.44-.29-.6-.47-.15-.18-.28-.41-.37-.69-.1-.28-.14-.59-.14-.93v-5.58c0-.33.05-.64.15-.91s.23-.5.39-.68c.16-.18.36-.34.61-.48.25-.13.49-.24.74-.32.25-.08.53-.14.85-.18s.61-.07.87-.08.55-.02.87-.02c.3,0,.57,0,.81.02.25.01.53.04.85.08s.61.1.86.18c.25.07.51.18.77.31.26.13.47.29.65.48s.31.41.42.68.16.58.16.92v5.58c0,.34-.05.65-.15.93s-.23.5-.39.68-.37.34-.62.47-.5.24-.74.31c-.24.07-.53.13-.86.17s-.62.07-.88.08-.55.02-.88.02Zm-.54-1.79h1.13v-7.35h-1.13v7.35Z"/>
        <path class="cls-1" d="m63.63,35.86v.04c.88.1,1.5.35,1.88.75.38.4.57.91.57,1.52v2.85h-3.95v-4.23h-1.13v4.23h-3.94v-10.4h5.95c.49,0,.91.04,1.26.13.35.09.66.23.92.43s.46.47.59.82c.13.35.19.77.19,1.27,0,.31-.02.58-.06.81-.04.23-.11.46-.21.67-.1.21-.24.39-.41.54-.17.15-.4.27-.68.37s-.61.17-.98.21Zm-2.63-.58h1.13v-3.11h-1.13v3.11Z"/>
        <path class="cls-1" d="m73,41.02l-1.64-4.53-.39.85v3.68h-3.95v-10.4h3.95v5s1.91-5,1.91-5h4.04l-2.12,4.92,2.43,5.48h-4.23Z"/>
        <path class="cls-1" d="m86.4,36.96h.09s.7-6.33.7-6.33h3.33l-1.43,10.4h-4.19l-.96-6.05h-.07l-.96,6.05h-4.06l-1.36-10.4h3.67l.49,6.33h.08l.76-6.33h3.12l.78,6.33Z"/>
        <path class="cls-1" d="m97.49,30.62v1.62h-2.22v2.51h2.07v1.63h-2.07v3h2.22v1.64h-6.16v-10.4h6.16Z"/>
        <path class="cls-1" d="m102.23,38.64l-.36,2.39h-3.82l1.9-10.4h5.91l1.94,10.4h-3.83l-.35-2.39h-1.4Zm.74-5.98h-.12l-.5,4.61h1.16l-.53-4.61Z"/>
        <path class="cls-1" d="m115.15,35.86v.04c.88.1,1.5.35,1.88.75.38.4.57.91.57,1.52v2.85h-3.95v-4.23h-1.13v4.23h-3.94v-10.4h5.95c.49,0,.91.04,1.26.13.35.09.66.23.92.43s.46.47.59.82c.13.35.19.77.19,1.27,0,.31-.02.58-.06.81-.04.23-.11.46-.21.67-.1.21-.24.39-.41.54-.17.15-.4.27-.68.37s-.61.17-.98.21Zm-2.63-.58h1.13v-3.11h-1.13v3.11Z"/>
      </g>
      <g>
        <g>
          <g>
            <polygon class="cls-2" points="147.79 5.11 137.94 5.11 148.19 22.87 137.94 40.63 147.79 40.63 158.05 22.87 147.79 5.11"/>
            <polygon class="cls-2" points="162.57 5.11 152.72 5.11 162.97 22.87 152.72 40.63 162.57 40.63 172.82 22.87 162.57 5.11"/>
            <polygon class="cls-2" points="133.01 5.11 123.15 5.11 133.42 22.87 123.15 40.63 133.01 40.63 143.27 22.87 133.01 5.11"/>
          </g>
          <g>
            <path class="cls-1" d="m33.61,6.38l-4.35,22.58h-10.65l-1.8-9.88-1.83,9.88H4.36L0,6.38h9.54l1.91,12.02,1.8-12.02h7.14l1.78,12.02,1.9-12.02h9.54Z"/>
            <path class="cls-1" d="m44.73,6.38v22.58h-9.57V6.38h9.57Z"/>
            <path class="cls-1" d="m47.48,28.96V6.38h9.57v19.13h5.14v3.45h-14.71Z"/>
            <path class="cls-1" d="m63.7,28.96V6.38h9.57v19.13h5.14v3.45h-14.71Z"/>
            <path class="cls-1" d="m100.93,22.45c0,.59-.01,1.17-.04,1.73-.03.56-.13,1.08-.3,1.56-.18.48-.45.92-.82,1.32-.37.4-.9.74-1.59,1.02s-1.56.5-2.63.66c-1.06.16-2.37.23-3.92.23h-11.7V6.38h11.7c1.43,0,2.65.08,3.63.24.99.16,1.8.38,2.44.67s1.14.61,1.48.99c.34.38.6.78.76,1.2.16.42.25.87.28,1.32.03.46.04.9.04,1.34,0,.61-.07,1.14-.2,1.58s-.31.81-.52,1.12-.46.56-.74.76c-.26.2-.54.36-.84.5-.66.31-1.42.5-2.27.55.97.06,1.84.26,2.61.61.33.15.65.34.96.57.31.23.59.55.84.94.25.4.44.89.59,1.48s.23,1.32.23,2.2Zm-11.43-7.38h1.85v-5.42h-1.85v5.42Zm0,10.59h1.85v-7.32h-1.85v7.32Z"/>
            <path class="cls-1" d="m117.3,6.38v3.41h-5.14v5.56h4.79v3.54h-4.79v6.61h5.14v3.45h-14.71V6.38h14.71Z"/>
          </g>
        </g>
        <polyline class="cls-1" points="167.72 0 172.03 0 172.03 1.05 170.45 1.05 170.45 5.11 169.3 5.11 169.3 1.05 167.72 1.05"/>
        <polygon class="cls-1" points="172.8 0 174.17 0 174.9 1.81 175.34 3.04 175.4 3.04 175.82 1.81 176.54 0 177.92 0 177.92 5.11 176.84 5.11 176.84 3.06 176.97 1.28 176.92 1.28 175.79 4.33 174.92 4.33 173.81 1.28 173.75 1.28 173.88 3.06 173.88 5.11 172.8 5.11 172.8 0"/>
      </g>
    </g>
  </g>
</svg>