<svg xmlns="http://www.w3.org/2000/svg" xmlns:xlink="http://www.w3.org/1999/xlink" width="265.867" height="67.663" viewBox="0 0 265.867 67.663">
  <defs>
    <clipPath id="clip-path">
      <rect id="사각형_1394" data-name="사각형 1394" width="265.867" height="67.663" fill="#ea5514"/>
    </clipPath>
  </defs>
  <g id="형지로고_가로형" transform="translate(0 0)">
    <g id="그룹_5821" data-name="그룹 5821" transform="translate(0 0)" clip-path="url(#clip-path)">
      <path id="패스_4514" data-name="패스 4514" d="M175.144,45.232s.381-1.9.609-2.74c.379-1.218.987-3.728,2.358-3.651a1.544,1.544,0,0,1,1.218,1.369,15.289,15.289,0,0,1-.078,2.51c-.075,1.9.533,3.273,2.13,3.349a2.517,2.517,0,0,0,1.9-1.3.769.769,0,0,0-.3-.988.608.608,0,0,0-.912.3c-.229.3-.532.607-.686.532-.38,0-.759-.3-.683-1.75,0,0,.076-1.749.076-2.207,0-1.75-1.065-3.2-2.739-3.2-1.827,0-2.741,1.9-2.969,2.588,0-1.828.687-6.925,2.436-9.207a.645.645,0,0,0-.077-.99.706.706,0,0,0-.991.076c-.455.458-2.814,4.033-2.814,11.946a30.917,30.917,0,0,0,.153,3.27.623.623,0,0,0,.609.686.682.682,0,0,0,.761-.609" transform="translate(-37.557 -6.423)" fill="#ea5514"/>
      <path id="패스_4515" data-name="패스 4515" d="M190.691,40.731s-1.064-1.6-1.52-2.359c-.61-1.139-1.9-3.27-.914-4.258a1.606,1.606,0,0,1,1.826.075,13.9,13.9,0,0,1,1.749,1.827c1.294,1.444,2.663,1.977,3.8.911a2.38,2.38,0,0,0,.458-2.283.711.711,0,0,0-.837-.531.821.821,0,0,0-.533.911.9.9,0,0,1-.078.914c-.227.228-.685.228-1.674-.76,0,0-1.216-1.37-1.522-1.675-1.216-1.218-3.043-1.522-4.183-.3-1.292,1.216-.609,3.271-.3,3.88-1.294-1.295-4.414-5.4-4.792-8.218-.078-.456-.38-.684-.761-.608a.605.605,0,0,0-.61.684c0,.685.837,4.946,6.392,10.5.839.838,2.131,1.979,2.435,2.282a.785.785,0,0,0,.989-.074.684.684,0,0,0,.075-.915" transform="translate(-39.107 -6.109)" fill="#ea5514"/>
      <path id="패스_4516" data-name="패스 4516" d="M197.972,25.5s-1.9-.379-2.74-.609c-1.218-.38-3.728-.988-3.653-2.357a1.546,1.546,0,0,1,1.371-1.217,15.232,15.232,0,0,1,2.511.075c1.9.076,3.27-.533,3.348-2.132a2.387,2.387,0,0,0-1.295-1.9.754.754,0,0,0-.988.228.672.672,0,0,0,.3.99c.306.229.609.457.534.683,0,.381-.3.686-1.749.686,0,0-1.751-.076-2.208-.076-1.748,0-3.2,1.065-3.2,2.739,0,1.826,1.9,2.739,2.588,2.967-1.828-.076-6.925-.685-9.207-2.435a.646.646,0,0,0-.99.077.7.7,0,0,0,.077.989c.456.457,4.032,2.815,11.869,2.815a32,32,0,0,0,3.349-.152.622.622,0,0,0,.683-.608.681.681,0,0,0-.607-.762" transform="translate(-39.463 -3.734)" fill="#ea5514"/>
      <path id="패스_4517" data-name="패스 4517" d="M193.473,8.381s-1.6,1.065-2.358,1.522c-1.141.607-3.272,1.9-4.259.835a1.489,1.489,0,0,1,.074-1.749,13.921,13.921,0,0,1,1.826-1.751c1.446-1.293,1.978-2.662.914-3.88a2.345,2.345,0,0,0-2.284-.381.709.709,0,0,0-.531.837.823.823,0,0,0,.912.532.91.91,0,0,1,.913.077c.228.228.228.684-.838,1.674,0,0-1.293,1.217-1.6,1.521-1.218,1.217-1.522,3.044-.3,4.185,1.217,1.294,3.272.609,3.88.3-1.294,1.218-5.4,4.412-8.218,4.794a.607.607,0,0,0-.609.76.656.656,0,0,0,.684.609c.686,0,4.947-.837,10.5-6.392.838-.836,1.979-2.129,2.284-2.511a.692.692,0,0,0-.077-.913.68.68,0,0,0-.913-.074" transform="translate(-39.149 -0.614)" fill="#ea5514"/>
      <path id="패스_4518" data-name="패스 4518" d="M178.242.766s-.383,1.977-.61,2.814c-.38,1.218-.99,3.654-2.358,3.577a1.383,1.383,0,0,1-1.218-1.292,15.3,15.3,0,0,1,.074-2.512C174.208,1.451,173.6.081,172,0A2.238,2.238,0,0,0,170.1,1.3a.784.784,0,0,0,.227.989.8.8,0,0,0,.991-.3c.23-.3.457-.61.685-.61.38.078.684.381.684,1.828,0,0-.075,1.75-.075,2.205,0,1.751,1.064,3.2,2.738,3.2,1.826,0,2.738-1.9,2.968-2.586-.074,1.827-.684,6.925-2.434,9.207a.643.643,0,0,0,.076.988.7.7,0,0,0,.99-.075c.455-.457,2.813-4.033,2.813-11.946,0-1.141-.075-2.891-.152-3.347A.6.6,0,0,0,179,.234a.678.678,0,0,0-.759.533" transform="translate(-36.775 0)" fill="#ea5514"/>
      <path id="패스_4519" data-name="패스 4519" d="M161.121,6.095s1.064,1.6,1.522,2.359c.608,1.14,1.9,3.271.837,4.259a1.49,1.49,0,0,1-1.752-.077c-.455-.379-.987-1.064-1.748-1.824-1.294-1.446-2.663-1.977-3.879-.912a2.337,2.337,0,0,0-.382,2.281.659.659,0,0,0,.837.455.7.7,0,0,0,.533-.834.915.915,0,0,1,.076-.914c.228-.229.685-.229,1.674.76,0,0,1.217,1.37,1.521,1.674,1.219,1.218,3.045,1.521,4.186.3,1.294-1.292.609-3.27.3-3.88,1.218,1.294,4.412,5.4,4.792,8.218a.645.645,0,0,0,.762.609c.457,0,.607-.457.607-.761,0-.686-.835-4.869-6.391-10.425-.836-.836-2.129-1.978-2.51-2.282a.692.692,0,0,0-.912,0,.785.785,0,0,0-.076.99" transform="translate(-33.654 -1.067)" fill="#ea5514"/>
      <path id="패스_4520" data-name="패스 4520" d="M153.506,22.4s1.98.379,2.817.609c1.216.379,3.651.987,3.574,2.358a1.382,1.382,0,0,1-1.292,1.217,15.35,15.35,0,0,1-2.512-.076c-1.9-.077-3.27.533-3.346,2.131-.077.836.759,1.6,1.292,1.9a.886.886,0,0,0,.99-.229.8.8,0,0,0-.3-.989c-.3-.228-.61-.533-.61-.684.076-.382.381-.761,1.827-.686,0,0,1.75.077,2.208.077,1.748,0,3.194-1.065,3.194-2.74,0-1.826-1.9-2.739-2.586-2.968,1.826,0,6.924.687,9.206,2.436a.644.644,0,0,0,.989-.076.7.7,0,0,0-.075-.989c-.458-.458-4.033-2.815-11.945-2.815-1.142,0-2.893.076-3.349.151a.6.6,0,0,0-.607.608.684.684,0,0,0,.531.763" transform="translate(-33.04 -4.517)" fill="#ea5514"/>
      <path id="패스_4521" data-name="패스 4521" d="M158.834,37.952s1.6-1.066,2.359-1.522c1.141-.609,3.272-1.9,4.261-.913a1.61,1.61,0,0,1-.075,1.825c-.381.458-1.066.989-1.828,1.751-1.445,1.293-1.976,2.663-.912,3.8a2.379,2.379,0,0,0,2.281.456.659.659,0,0,0,.458-.836.7.7,0,0,0-.837-.534,1.154,1.154,0,0,1-.914-.074c-.227-.229-.227-.686.761-1.75,0,0,1.37-1.142,1.673-1.447a2.957,2.957,0,0,0,.306-4.261c-1.295-1.215-3.272-.532-3.881-.227,1.293-1.294,5.4-4.414,8.218-4.793a.682.682,0,0,0,.608-.763.635.635,0,0,0-.762-.608c-.684,0-4.87.838-10.424,6.391-.838.837-1.979,2.132-2.283,2.435a.792.792,0,0,0,0,.988.784.784,0,0,0,.989.078" transform="translate(-34.107 -6.067)" fill="#ea5514"/>
      <path id="패스_4522" data-name="패스 4522" d="M34.182,60.114c-.105.441-.216.94-.328,1.445-.009.041-.018.082-.027.123-.132-.513-.268-1.03-.39-1.5l-2.761-9.541H23.462l6.747,17.6a2.182,2.182,0,0,1,.179.756,1.237,1.237,0,0,1-.223.583A5.966,5.966,0,0,1,28.084,71.7a7.947,7.947,0,0,1-2.224.924l-.8.112,1.377,5.788.74-.049a9.814,9.814,0,0,0,5.587-2.669c1.908-1.786,3.632-4.468,6.327-12.31l4.331-12.852H36.436Z" transform="translate(-5.075 -10.955)" fill="#ea5514"/>
      <path id="패스_4523" data-name="패스 4523" d="M11.044,48.475a6.77,6.77,0,0,0-3.069.737A6.428,6.428,0,0,0,6.49,50.236V40.557H0V68.546H6.49V56.536a2.481,2.481,0,0,1,.144-1,2.393,2.393,0,0,1,2.254-1.616c.575,0,2.327,0,2.327,3.368V68.546H17.7V56.715c0-5.16-2.49-8.24-6.661-8.24" transform="translate(0 -8.773)" fill="#ea5514"/>
      <path id="패스_4524" data-name="패스 4524" d="M68.514,63.722V50.645h-6.49V62.17a2.754,2.754,0,0,1-.186,1.077,2.42,2.42,0,0,1-2.248,1.665c-.558,0-2.255,0-2.255-3.8V50.645h-6.49V62.019c0,7.46,4.2,8.574,6.7,8.574a6.726,6.726,0,0,0,5.2-2.277l.186,2.113h5.752l-.024-.538c-.066-1.421-.143-3.645-.143-6.168" transform="translate(-10.999 -10.955)" fill="#ea5514"/>
      <path id="패스_4525" data-name="패스 4525" d="M87.506,50.637A6.7,6.7,0,0,0,82.364,52.9l-.179-2.191H76.439l.022.868c.074,1.719.143,3.628.143,5.916V70.675H83.1V59.438a3.883,3.883,0,0,1,.148-1.275,2.563,2.563,0,0,1,2.321-1.839c1.5,0,2.255,1.189,2.255,3.533V70.675h6.491v-11.5c0-5.344-2.544-8.534-6.8-8.534" transform="translate(-16.535 -10.953)" fill="#ea5514"/>
      <rect id="사각형_1393" data-name="사각형 1393" width="6.49" height="19.871" transform="translate(113.116 39.803)" fill="#ea5514"/>
      <path id="패스_4526" data-name="패스 4526" d="M147.583,46.94a3.245,3.245,0,1,0-3.245-3.245,3.245,3.245,0,0,0,3.245,3.245" transform="translate(-31.222 -8.75)" fill="#ea5514"/>
      <path id="패스_4527" data-name="패스 4527" d="M130.962,66.943c0,3.236-.245,4.639-.936,5.361a4.4,4.4,0,0,1-2.9.992l-.537.042.663,5.26h.452a10.65,10.65,0,0,0,7.1-2.29c1.806-1.65,2.646-4.2,2.646-8.035V50.789h-6.49Z" transform="translate(-27.383 -10.986)" fill="#ea5514"/>
      <path id="패스_4528" data-name="패스 4528" d="M135.414,46.94a3.245,3.245,0,1,0-3.245-3.245,3.245,3.245,0,0,0,3.245,3.245" transform="translate(-28.59 -8.75)" fill="#ea5514"/>
      <path id="패스_4529" data-name="패스 4529" d="M119.953,69.37a5.014,5.014,0,0,0-1.373-1.793,6.319,6.319,0,0,0-2.17-1.137,10.974,10.974,0,0,0-2.835-.454l-4.326-.161a2.1,2.1,0,0,1-1.147-.314.637.637,0,0,1-.3-.55,1.205,1.205,0,0,1,.132-.572c.031-.06.064-.114.1-.168a8.756,8.756,0,0,0,2.672.42c4.341,0,7.862-3.109,7.885-6.952h.011V50.65h-3.582s-2.72.011-4.313.011c-4.356,0-7.887,3.129-7.887,6.99a6.438,6.438,0,0,0,1.507,4.1,9.666,9.666,0,0,0-1.3,1.7,4.877,4.877,0,0,0-.6,2.4,3.834,3.834,0,0,0,.538,1.987,3.764,3.764,0,0,0,.911,1.042c-.217.187-.423.382-.612.581a6.443,6.443,0,0,0-.876,1.141,5.155,5.155,0,0,0-.55,1.273,5.093,5.093,0,0,0-.189,1.4,4.62,4.62,0,0,0,.527,2.185,4.568,4.568,0,0,0,1.675,1.726,9.028,9.028,0,0,0,2.791,1.069,18.568,18.568,0,0,0,3.994.373,15.4,15.4,0,0,0,4.222-.522,9.492,9.492,0,0,0,3.066-1.444,6.174,6.174,0,0,0,1.886-2.216,6.113,6.113,0,0,0,.629-2.715,5.644,5.644,0,0,0-.474-2.351M108.375,56.734a2.311,2.311,0,0,1,.452-.828,2.079,2.079,0,0,1,.749-.549,2.661,2.661,0,0,1,1.087-.206,2.526,2.526,0,0,1,1.89.653,2.552,2.552,0,0,1,.654,1.9,3.037,3.037,0,0,1-.163.994,2.391,2.391,0,0,1-.462.806,2.04,2.04,0,0,1-.747.53,2.811,2.811,0,0,1-1.113.2,2.5,2.5,0,0,1-1.854-.643,2.41,2.41,0,0,1-.65-1.8,3.471,3.471,0,0,1,.157-1.046m5.848,16.048a1.723,1.723,0,0,1-.527.656,3.194,3.194,0,0,1-1.085.521,6.322,6.322,0,0,1-1.768.21,5.853,5.853,0,0,1-2.607-.463,1.163,1.163,0,0,1-.737-1.082,2.754,2.754,0,0,1,.051-.525,1.538,1.538,0,0,1,.19-.468,3.992,3.992,0,0,1,.444-.6,4.439,4.439,0,0,1,.61-.555l3.39.1a3.247,3.247,0,0,1,1.7.435,1.075,1.075,0,0,1,.5.97,2.026,2.026,0,0,1-.161.8" transform="translate(-21.986 -10.956)" fill="#ea5514"/>
      <path id="패스_4530" data-name="패스 4530" d="M308.062,68.988h-23.08V66.21h23.08Zm-5.256-5.721H289.7v-13.4h12.914v2.751H292.532V55.07h9.9v2.778h-9.9v2.613h10.273Zm-24.441,1.87H264.2V56.252h7.765V53.089h-7.9V50.338h10.78v8.693h-7.765v3.356h11.287Zm4.509,6.932h-2.855V47.038h2.855ZM248.881,54.217a2.975,2.975,0,1,0-2.935,3.245,3.049,3.049,0,0,0,2.935-3.245M260.728,73H247.654V65.88h9.5V64.5h-9.632V61.754h12.567V68.6h-9.472v1.568h10.113Zm-4.082-12.736h-2.828V55.7H251.6a5.849,5.849,0,1,1-5.657-7.454,5.593,5.593,0,0,1,5.71,4.731h2.161V47.615h2.828Zm4.7.467h-2.828v-13.7h2.828Zm-28.71,1.843-1.975,2.035-4.749-4.841a20.118,20.118,0,0,1-5.923,4.924l-2.028-2.118c4.082-2.091,7.5-6.134,8.565-9.3h-7.07V50.5H230.2a16.879,16.879,0,0,1-2.615,6.932c.027,0,5.043,5.144,5.043,5.144m5.15,9.49h-2.828V47.038h2.828Zm-25.615-4.1c0-1.706-1.414-2.7-3.148-2.7a2.893,2.893,0,0,0-3.175,2.7c0,1.595,1.36,2.723,3.175,2.723,1.788,0,3.148-1.017,3.148-2.723m2.935,0c0,3.136-2.828,5.474-6.083,5.474-3.415,0-6.084-2.339-6.084-5.474,0-3.109,2.855-5.419,6.084-5.419,3.255,0,6.083,2.31,6.083,5.419m.667-5.282h-2.828V60.544h-4.429V57.766h4.429V55.73h-4.429V54.6h-5.2a3.561,3.561,0,0,0-3.069,1.045,2.6,2.6,0,0,0,.16,3.631,3.12,3.12,0,0,0,3.869-.193,1.54,1.54,0,0,0-.4-2.5l2.055-1.871a4.026,4.026,0,0,1,.72,5.86c-1.44,2.035-5.469,2.64-7.737,1.017a4.762,4.762,0,0,1-1.281-6.574,1.426,1.426,0,0,1,.4-.413h-2.962V52.071h13.741v.908h4.135V47.037h2.828Zm-9.338-11.663c-.881.027-3.149.082-5.5,0a7.4,7.4,0,0,1-3.442-1.183l.881-2.255a12.4,12.4,0,0,0,2.828.715c2.081.082,4.322.027,5.23-.027Z" transform="translate(-42.195 -10.175)" fill="#5f5e5e"/>
    </g>
  </g>
</svg>
